<svg xmlns="http://www.w3.org/2000/svg" width="20" height="20" viewBox="0 0 20 20"><g transform="translate(0 -13.91)"><path d="M2.126,214.1a2.129,2.129,0,0,0,1.969-1.4,2.129,2.129,0,0,0,1.969,1.4,2.129,2.129,0,0,0,1.969-1.4,2.085,2.085,0,0,0,3.937,0,2.085,2.085,0,0,0,3.937,0,2.129,2.129,0,0,0,1.969,1.4A2.186,2.186,0,0,0,20,211.854H0A2.186,2.186,0,0,0,2.126,214.1Z" transform="translate(0 -189.765)" fill="#fff"/><path d="M17.12,15.186a2.136,2.136,0,0,0-1.929-1.276H4.809A2.136,2.136,0,0,0,2.88,15.186L0,21.466H20Z" fill="#fff"/><path d="M50.35,288.471a1.359,1.359,0,0,1-.365.936,1.2,1.2,0,0,1-.88.388H43.649v-6.56h-.937v6.56H37.256a1.2,1.2,0,0,1-.88-.388,1.359,1.359,0,0,1-.365-.936v-6.066H34.606v6.066a2.739,2.739,0,0,0,2.65,2.819H49.105a2.739,2.739,0,0,0,2.65-2.819v-6.066H50.35Z" transform="translate(-33.18 -257.38)" fill="#fff"/><rect width="0.996" height="2.325" transform="translate(7.397 27.837)" fill="#fff"/><rect width="0.996" height="2.325" transform="translate(11.606 27.837)" fill="#fff"/></g></svg>